<?xml version="1.0" standalone="no"?>
<!DOCTYPE svg PUBLIC "-//W3C//DTD SVG 20010904//EN"
 "http://www.w3.org/TR/2001/REC-SVG-20010904/DTD/svg10.dtd">
<svg version="1.0" xmlns="http://www.w3.org/2000/svg"
 width="225.000000pt" height="225.000000pt" viewBox="0 0 225.000000 225.000000"
 preserveAspectRatio="xMidYMid meet">

<g transform="translate(0.000000,225.000000) scale(0.100000,-0.100000)"
fill="#000000" stroke="none">
<path d="M467 1376 c-20 -8 -44 -20 -53 -27 -47 -39 -60 -146 -23 -206 33 -54
62 -63 197 -63 103 0 123 -3 143 -19 23 -19 24 -19 5 -40 -18 -19 -30 -21
-160 -21 l-142 0 -32 -65 -32 -65 183 0 c213 0 237 7 275 81 29 55 27 144 -4
186 -45 60 -65 68 -202 73 -104 4 -127 8 -127 20 0 12 23 15 136 18 l137 3 31
58 c17 32 31 64 31 70 0 17 -314 14 -363 -3z"/>
<path d="M918 1328 c-18 -35 -34 -66 -36 -70 -2 -5 75 -8 172 -8 l176 0 16
-25 c21 -32 12 -68 -21 -83 -16 -8 -85 -12 -185 -12 l-160 0 0 -130 0 -130 55
0 55 0 0 65 0 65 78 -1 77 0 53 -65 53 -64 80 0 80 0 -62 75 -62 76 31 32 c17
18 36 45 41 60 17 44 13 127 -8 173 -36 80 -105 104 -298 104 l-103 0 -32 -62z"/>
<path d="M1775 1378 c-3 -7 -6 -71 -7 -141 l-3 -128 -113 135 c-95 113 -118
136 -141 136 -50 0 -51 -6 -51 -267 l0 -243 55 0 54 0 3 137 3 137 103 -124
c57 -69 115 -133 129 -142 26 -16 51 -14 65 6 4 6 8 122 8 259 l0 247 -50 0
c-31 0 -52 -5 -55 -12z"/>
</g>
</svg>
